PathFileType	4	(X/Y/Z)	RBDS015\RBDS015runT25.trc
DataRate	CameraRate	NumFrames	NumMarkers	Units	OrigDataRate	OrigDataStartFrame	OrigNumFrames
150.000000	150.000000	4	33	mm	150.000000	1125	4500
Frame#	Time	L.ASIS			L.Heel.Bottom			L.Heel.Lateral			L.Heel.Top			L.Iliac.Crest			L.MT1			L.MT5			L.PSIS			L.Shank.Bottom.Lateral			L.Shank.Bottom.Medial			L.Shank.Top.Lateral			L.Shank.Top.Medial			L.Thigh.Bottom.Lateral			L.Thigh.Bottom.Medial			L.Thigh.Top.Lateral			L.Thigh.Top.Medial			R.ASIS			R.ASY			R.Heel.Bottom			R.Heel.Lateral			R.Heel.Top			R.Iliac.Crest			R.MT1			R.MT5			R.PSIS			R.Shank.Bottom.Lateral			R.Shank.Bottom.Medial			R.Shank.Top.Lateral			R.Shank.Top.Medial			R.Thigh.Bottom.Lateral			R.Thigh.Bottom.Medial			R.Thigh.Top.Lateral			R.Thigh.Top.Medial			
		X1	Y1	Z1	X2	Y2	Z2	X3	Y3	Z3	X4	Y4	Z4	X5	Y5	Z5	X6	Y6	Z6	X7	Y7	Z7	X8	Y8	Z8	X9	Y9	Z9	X10	Y10	Z10	X11	Y11	Z11	X12	Y12	Z12	X13	Y13	Z13	X14	Y14	Z14	X15	Y15	Z15	X16	Y16	Z16	X17	Y17	Z17	X18	Y18	Z18	X19	Y19	Z19	X20	Y20	Z20	X21	Y21	Z21	X22	Y22	Z22	X23	Y23	Z23	X24	Y24	Z24	X25	Y25	Z25	X26	Y26	Z26	X27	Y27	Z27	X28	Y28	Z28	X29	Y29	Z29	X30	Y30	Z30	X31	Y31	Z31	X32	Y32	Z32	X33	Y33	Z33	

1126	7.500000000000001	2182.186270815018	1089.234971536509	920.2704060042224	2178.519258057873	41.33139387283815	996.2654336749042	2196.714863328808	60.9733053002945	952.0213268714571	2177.27564686406	83.62196117765214	994.2209573076016	2107.100484221261	1190.446975075584	879.9793408726841	2381.375057545261	103.4354536393133	1020.554067023544	2348.883550085291	77.22864766363809	913.1397265138729	2009.948428814148	1149.32089609844	990.1036249167915	2218.337110776085	223.3005464498266	927.0118039294646	2174.993273657899	219.2521628519537	954.3618060693534	2206.166415172808	301.7470760154287	912.0079012352722	2161.096248691982	302.0223719150783	940.8063759935827	2178.326672793372	707.6425358526237	878.3201159586015	2121.511674748805	690.3550471018403	911.1117937232443	2139.116366966814	809.6929392463326	862.4571221120854	2079.310816931355	791.2891855734327	898.4983663357137	2187.796511091815	1074.243324205851	1142.278799681553	1761.649149441799	113.5455576976192	1107.055105639885	1606.585593311823	222.7474417007593	1096.446070886931	1636.068783696109	210.3756714152143	1138.997187754556	1647.511910667648	244.8112574359071	1102.275453956992	2133.547165971813	1174.635251251751	1181.966361441349	1748.04559510117	70.96118991301415	1054.617248049845	1707.962701536892	83.3987277978075	1165.912532998229	2013.817140557072	1148.6212593555	1083.659592657051	1757.072110227036	288.769736931415	1155.865380552858	1716.739025517117	314.4899094027874	1127.267826394074	1795.333844226332	360.3930774444796	1163.513822710295	1755.462116982205	384.2145192276311	1135.629578260152	2004.670174973579	736.002601100303	1180.404320663415	1948.245546270864	749.9972852973705	1136.070466671853	2018.233466899343	843.8276081928999	1191.499848339167	1965.464502171036	857.3297316404211	1148.112328454551	
1127	7.506666666666667	2182.326544196023	1089.932404096103	919.8749442732873	2195.369193950865	39.07088335626178	996.3642561012065	2212.747940846174	59.41850041061532	952.0970443026293	2192.432405445161	81.31876118165557	994.3213066378506	2108.205515323546	1191.718758883425	879.3976790955196	2395.868623996453	109.14141286246	1020.300963563728	2364.256628252274	81.60428136363186	912.9507504070779	2010.42988894429	1150.286374471418	990.3416520153539	2228.387852093727	223.2384203104847	927.1881244443398	2185.289313646383	217.6381669939225	954.725107774255	2213.509699631896	301.2525968648496	912.3675157030652	2168.508208557247	299.9432765045214	941.3198018034843	2175.788771718467	706.8173391861569	878.263847158963	2119.390884005426	690.0896907841786	912.0628808364581	2137.002014460042	809.0091865711009	862.2984585107477	2077.553544431046	791.1627191804265	899.2341421919356	2188.992276956994	1075.000264742534	1141.433876338172	1751.15992164309	117.1481209550511	1108.298871841958	1600.587905773856	232.9932201008873	1100.292417876738	1629.961845413699	219.1908021577105	1142.446079328374	1642.56768185455	253.1190250887593	1105.687989820483	2135.107961605587	1176.098818220961	1181.552651737264	1734.820576363596	75.04164480172611	1056.162827829577	1696.706408534459	88.96304786753876	1167.607149599364	2014.942446197937	1149.743120998265	1084.145326703856	1752.304262051896	292.8553579588953	1158.035509957903	1711.983216179068	319.4637916113766	1130.262802403512	1791.971357783369	363.7465595626245	1165.356594082352	1752.07424023188	388.4265464136744	1138.256806999256	2005.228028771602	736.8085599859504	1180.642380507119	1948.60226491065	751.0779877399275	1136.617369674609	2019.369144482571	844.5733701726414	1191.792757823053	1966.433811694422	858.3853508990907	1148.715949100789	
1128	7.513333333333334	2182.366506685223	1090.149055506297	919.4678395472372	2209.814325183003	37.2169415041514	996.4456682053134	2226.440245350426	58.13971692426121	952.1320268035431	2205.414093897896	79.39438429057236	994.3809243662284	2109.124721393453	1192.335387669178	878.7881444174783	2408.113039007826	114.1204207113968	1019.985948394324	2377.230294915204	85.36601579742656	912.7289650935321	2010.742578634395	1150.657864337343	990.6297068037551	2236.93530176946	223.1352809878195	927.3015932141572	2194.119831246512	216.234754940283	955.0507394048419	2219.792070915178	300.7229668545414	912.6576959898217	2174.922604963268	298.0803096687324	941.7968338844777	2174.025563276362	705.8525967438921	878.2182742996403	2117.967962524301	689.5172708671877	912.7827698216333	2135.501891720032	808.129876882577	862.1644999693924	2076.34246375665	790.673350664335	899.7707511118278	2190.10882910403	1075.342608055257	1140.559324191851	1740.800576498663	120.8931190142053	1109.599112706289	1594.964998129229	243.1250244363247	1103.963045280199	1624.105294754979	227.9144047107573	1145.768597333843	1637.889494092725	261.2718954459503	1108.959323846983	2136.686268664123	1177.090938826868	1181.230457348859	1721.850641474032	79.39895096210543	1057.804031085149	1685.61170405432	94.69753506810659	1169.357830097492	2015.914296914822	1150.318663509061	1084.692561735201	1747.836106730944	296.7360651892844	1160.175802410848	1707.617367575058	324.3564818166545	1133.240256480533	1789.063705240363	366.7571427009164	1167.19068006986	1749.232503478244	392.4217110854438	1140.911728728913	2006.422261532442	736.9156898939602	1180.979717511913	1949.486857424521	751.3579123915788	1137.385356346872	2020.937615220326	844.6362189066319	1192.192182346841	1967.729945804318	858.6809174851566	1149.561917431465	
1129	7.52	2182.31622068316	1089.90998635711	919.0413852518376	2221.619904603286	35.59907501924891	996.520205213018	2237.595072689224	56.95514942783349	952.1415341050015	2216.035974376052	77.69683587926602	994.4121637211448	2109.814268037695	1192.285412653755	878.1559865008752	2418.023861870769	118.0201492384824	1019.648376308005	2387.69582321036	88.19111844584783	912.5060016130998	2010.885875959674	1150.408840194796	990.9664614592444	2243.897998993343	222.8137940709449	927.3547715749528	2201.370831845545	214.8824799000079	955.3301167785161	2224.956836235586	300.0233924512311	912.8674137287589	2180.253943681045	296.3185043094964	942.2174961067977	2173.04898355877	704.7503966703649	878.235259349064	2117.225102096689	688.6326031177376	913.284719838621	2134.631389869711	807.0617171370037	862.1069751524522	2075.669958778862	789.8234662412765	900.1377084734382	2191.12807611273	1075.258989638395	1139.667473429426	1730.612519898199	124.8096503640174	1110.981595074551	1589.684466939623	253.119133682545	1107.438175213512	1618.481987459764	236.5342621804378	1148.947726868671	1633.441357267953	269.2676966206045	1112.074703447197	2138.217330090133	1177.612212545229	1180.992038105981	1709.222290530143	84.04760544225574	1059.547189233133	1674.727327444832	100.6069706602281	1171.182543597458	2016.709536559774	1150.326063357733	1085.28284861872	1743.640258392743	300.4539141506529	1162.28718865162	1703.637706026462	329.1938279786681	1136.171043426283	1786.571610254728	369.4599342828795	1169.01695097069	1746.922772020465	396.22050124669	1143.562239209026	2008.249005128508	736.2884617937908	1181.418238004236	1950.890816159053	750.7935751404814	1138.380380258972	2022.922616108912	843.9842503120717	1192.702699331722	1969.326801565809	858.1715726771369	1150.660555686489	
